<svg xmlns="http://www.w3.org/2000/svg" xmlns:xlink="http://www.w3.org/1999/xlink" width="500" zoomAndPan="magnify" viewBox="0 0 375 374.999991" height="500" preserveAspectRatio="xMidYMid meet" version="1.0"><defs><clipPath id="8038733894"><path d="M 149 141.941406 L 226 141.941406 L 226 232.691406 L 149 232.691406 Z M 149 141.941406 " clip-rule="nonzero"/></clipPath></defs><g clip-path="url(#8038733894)"><path fill="#fd6f14" d="M 154.691406 198.425781 C 156.363281 201.261719 158.378906 203.910156 160.804688 206.335938 L 161.089844 206.683594 L 187.492188 233.042969 L 214.199219 206.335938 C 216.625 203.910156 218.644531 201.261719 220.273438 198.425781 C 228.488281 183.972656 226.449219 165.195312 214.199219 152.945312 C 206.859375 145.605469 197.152344 141.957031 187.492188 141.957031 C 177.789062 141.957031 168.125 145.605469 160.785156 152.945312 C 148.574219 165.195312 146.492188 183.992188 154.691406 198.425781 Z M 187.511719 218.367188 L 175.097656 205.992188 L 161.109375 206.683594 L 187.511719 180.28125 L 206.53125 199.34375 L 213.871094 206.683594 L 199.886719 205.992188 Z M 187.511719 165.605469 L 180.171875 172.945312 L 162.433594 190.679688 C 158.09375 180.628906 160.011719 168.5 168.164062 160.285156 C 173.484375 154.960938 180.476562 152.3125 187.53125 152.3125 C 194.523438 152.3125 201.578125 154.960938 206.898438 160.285156 C 215.050781 168.5 216.949219 180.628906 212.566406 190.679688 L 194.890625 172.941406 Z M 187.511719 165.605469 " fill-opacity="1" fill-rule="evenodd"/></g></svg>