<svg xmlns="http://www.w3.org/2000/svg" xmlns:xlink="http://www.w3.org/1999/xlink" width="500" zoomAndPan="magnify" viewBox="0 0 375 374.999991" height="500" preserveAspectRatio="xMidYMid meet" version="1.0"><defs><clipPath id="4a6f0dfa1c"><path d="M 109 93.660156 L 266 93.660156 L 266 281.160156 L 109 281.160156 Z M 109 93.660156 " clip-rule="nonzero"/></clipPath></defs><g clip-path="url(#4a6f0dfa1c)"><path fill="#fd6f14" d="M 119.914062 210.007812 C 123.359375 215.84375 127.519531 221.300781 132.511719 226.300781 L 133.101562 227.011719 L 187.484375 281.3125 L 242.496094 226.300781 C 247.496094 221.300781 251.652344 215.84375 255.011719 210.007812 C 271.933594 180.234375 267.734375 141.554688 242.496094 116.320312 C 227.378906 101.199219 207.386719 93.683594 187.484375 93.683594 C 167.496094 93.683594 147.589844 101.199219 132.472656 116.320312 C 107.316406 141.554688 103.03125 180.273438 119.914062 210.007812 Z M 187.523438 251.078125 L 161.953125 225.585938 L 133.144531 227.011719 L 148.261719 211.894531 L 187.523438 172.628906 L 226.707031 211.894531 L 241.824219 227.011719 L 213.015625 225.585938 Z M 187.523438 142.394531 L 172.40625 157.515625 L 135.871094 194.050781 C 126.929688 173.347656 130.875 148.359375 147.671875 131.433594 C 158.632812 120.472656 173.035156 115.015625 187.566406 115.015625 C 201.96875 115.015625 216.5 120.472656 227.460938 131.433594 C 244.257812 148.359375 248.164062 173.34375 239.132812 194.046875 L 202.726562 157.511719 Z M 187.523438 142.394531 " fill-opacity="1" fill-rule="evenodd"/></g></svg>